<svg id="svg" version="1.1" width="400" height="217.40976645435245" xmlns="http://www.w3.org/2000/svg" xmlns:xlink="http://www.w3.org/1999/xlink" style="display: block;"><g id="svgg"><path id="path0" d="M162.588 74.399 C 162.110 74.497,160.935 74.684,159.978 74.814 C 159.021 74.945,157.847 75.187,157.368 75.352 C 156.890 75.517,156.215 75.716,155.868 75.794 C 152.282 76.599,144.644 82.713,144.644 84.778 C 144.644 84.872,144.473 85.191,144.263 85.487 C 144.054 85.783,143.770 86.319,143.633 86.678 C 142.629 89.305,142.034 91.091,142.034 91.474 C 142.034 91.722,141.815 92.702,141.547 93.651 L 141.061 95.378 141.058 116.259 C 141.055 135.308,141.087 137.245,141.425 138.336 C 141.628 138.994,141.890 140.071,142.007 140.729 C 142.993 146.282,146.978 152.087,151.628 154.744 C 153.292 155.695,156.632 157.042,157.327 157.042 C 157.618 157.042,158.286 157.198,158.809 157.388 C 160.988 158.181,171.952 158.192,174.443 157.404 C 174.981 157.234,175.813 156.994,176.291 156.870 C 178.026 156.423,179.504 155.797,181.733 154.565 C 185.965 152.227,189.553 146.998,191.003 141.055 C 191.766 137.930,191.866 136.980,191.909 132.463 L 191.952 128.004 184.666 128.004 L 177.379 128.004 177.234 131.376 C 176.925 138.545,176.272 140.793,173.920 142.773 C 170.276 145.840,161.989 145.705,158.877 142.526 C 155.925 139.511,155.925 139.509,156.004 114.845 L 156.067 94.943 156.663 93.471 C 157.815 90.624,159.682 88.600,161.533 88.191 C 161.874 88.116,162.522 87.916,162.973 87.747 C 164.323 87.240,168.696 87.333,170.602 87.909 C 174.850 89.192,176.435 91.593,177.042 97.662 L 177.379 101.033 184.606 101.090 L 191.834 101.148 191.969 100.609 C 192.179 99.772,191.670 93.710,191.303 92.667 C 191.121 92.154,190.973 91.526,190.973 91.270 C 190.973 87.219,185.153 79.366,180.533 77.182 C 178.390 76.170,177.740 75.907,177.048 75.775 C 176.632 75.696,176.047 75.511,175.748 75.364 C 175.449 75.217,174.617 75.029,173.899 74.947 C 173.181 74.866,171.824 74.657,170.884 74.485 C 169.051 74.148,164.063 74.097,162.588 74.399 M29.509 75.796 C 29.333 75.973,29.119 76.624,29.034 77.243 C 28.949 77.863,28.755 78.673,28.604 79.044 C 28.453 79.414,28.262 80.186,28.180 80.759 C 28.097 81.332,27.901 82.115,27.745 82.499 C 27.588 82.883,27.392 83.666,27.310 84.239 C 27.227 84.812,27.019 85.616,26.848 86.026 C 26.676 86.437,26.536 87.023,26.536 87.329 C 26.536 87.634,26.340 88.442,26.101 89.122 C 25.862 89.803,25.666 90.583,25.666 90.856 C 25.666 91.129,25.483 91.915,25.260 92.604 C 25.037 93.292,24.743 94.369,24.608 94.997 C 24.472 95.625,24.250 96.653,24.115 97.281 C 23.979 97.909,23.685 98.986,23.462 99.675 C 23.239 100.363,23.056 101.149,23.056 101.422 C 23.056 101.695,22.860 102.475,22.621 103.156 C 22.382 103.837,22.186 104.639,22.186 104.939 C 22.186 105.238,22.043 105.852,21.869 106.303 C 21.695 106.754,21.454 107.613,21.334 108.211 C 21.027 109.731,20.479 111.946,20.122 113.105 C 19.956 113.643,19.755 114.514,19.674 115.040 C 19.593 115.567,19.391 116.322,19.225 116.719 C 19.059 117.116,18.923 117.691,18.923 117.997 C 18.923 118.303,18.728 119.111,18.488 119.791 C 18.249 120.472,18.053 121.252,18.053 121.525 C 18.053 121.798,17.871 122.584,17.647 123.273 C 17.424 123.961,17.138 125.014,17.012 125.612 C 16.885 126.210,16.677 127.115,16.548 127.624 C 16.419 128.132,16.215 128.940,16.096 129.418 C 15.976 129.897,15.780 130.680,15.661 131.158 C 15.541 131.637,15.339 132.444,15.212 132.953 C 15.085 133.461,14.883 134.318,14.765 134.856 C 14.646 135.394,14.405 136.324,14.229 136.922 C 14.053 137.520,13.816 138.526,13.702 139.158 C 13.588 139.789,13.404 140.474,13.294 140.680 C 13.184 140.886,13.023 141.544,12.937 142.142 C 12.850 142.741,12.656 143.533,12.505 143.904 C 12.354 144.274,12.159 145.106,12.071 145.753 C 11.984 146.399,11.788 147.172,11.637 147.471 C 11.485 147.771,11.290 148.554,11.202 149.212 C 11.114 149.869,10.920 150.653,10.771 150.952 C 10.622 151.251,10.435 152.004,10.355 152.625 C 10.276 153.246,10.062 154.112,9.879 154.549 C 9.696 154.987,9.577 155.702,9.613 156.139 L 9.679 156.933 16.204 156.994 C 19.793 157.028,22.926 157.007,23.165 156.948 C 23.673 156.824,24.250 155.082,25.334 150.408 C 25.664 148.986,25.943 147.904,26.541 145.731 C 26.755 144.954,27.032 143.877,27.157 143.339 C 27.593 141.452,27.972 140.293,28.243 140.023 C 28.599 139.666,48.984 139.503,49.894 139.849 C 50.567 140.105,51.115 141.208,51.115 142.306 C 51.115 142.703,51.310 143.585,51.550 144.265 C 51.789 144.946,51.985 145.778,51.985 146.114 C 51.985 146.450,52.181 147.282,52.420 147.963 C 52.659 148.644,52.856 149.472,52.858 149.804 C 52.859 150.136,53.055 151.028,53.293 151.787 C 53.530 152.545,53.728 153.426,53.732 153.744 C 53.740 154.405,54.435 156.534,54.744 156.843 C 54.866 156.965,57.662 157.025,61.678 156.991 L 68.407 156.933 68.479 156.303 C 68.518 155.957,68.403 155.272,68.223 154.781 C 68.043 154.290,67.830 153.448,67.751 152.909 C 67.671 152.371,67.476 151.490,67.317 150.952 C 66.878 149.467,66.343 147.272,66.123 146.058 C 66.015 145.459,65.780 144.481,65.602 143.883 C 65.274 142.784,64.972 141.521,64.562 139.532 C 64.439 138.934,64.152 137.851,63.925 137.124 C 63.698 136.398,63.513 135.563,63.513 135.268 C 63.513 134.973,63.317 134.175,63.078 133.494 C 62.838 132.814,62.643 132.056,62.643 131.812 C 62.643 131.567,62.454 130.659,62.224 129.794 C 61.516 127.136,61.313 126.317,61.000 124.850 C 60.542 122.709,60.053 120.719,59.716 119.630 C 59.549 119.092,59.342 118.164,59.255 117.568 C 59.169 116.971,58.966 116.167,58.804 115.780 C 58.642 115.393,58.510 114.829,58.510 114.527 C 58.510 114.224,58.323 113.414,58.095 112.725 C 57.867 112.037,57.619 111.033,57.544 110.495 C 57.469 109.956,57.275 109.125,57.113 108.646 C 56.951 108.167,56.705 107.238,56.565 106.580 C 56.426 105.922,56.209 104.894,56.082 104.296 C 55.955 103.698,55.673 102.572,55.455 101.794 C 55.237 101.017,54.955 99.916,54.827 99.347 C 54.210 96.603,53.603 94.061,53.072 92.007 C 52.933 91.468,52.683 90.392,52.517 89.614 C 52.059 87.472,51.570 85.482,51.233 84.394 C 51.066 83.855,50.861 82.926,50.777 82.327 C 50.693 81.729,50.535 81.069,50.427 80.860 C 50.319 80.651,50.132 79.917,50.012 79.229 C 49.892 78.540,49.589 77.414,49.340 76.726 L 48.887 75.476 39.358 75.476 C 31.253 75.476,29.782 75.524,29.509 75.796 M78.441 75.965 C 78.241 76.709,78.285 156.458,78.485 156.773 C 78.621 156.987,80.258 157.035,85.931 156.990 L 93.203 156.933 93.312 140.548 C 93.417 124.646,93.433 124.154,93.843 123.854 C 94.821 123.139,102.012 123.504,102.012 124.268 C 102.012 124.418,102.208 124.925,102.447 125.394 C 102.686 125.864,102.882 126.338,102.882 126.450 C 102.882 126.561,103.066 127.054,103.291 127.546 C 103.516 128.037,103.907 128.953,104.161 129.581 C 104.415 130.209,104.830 131.237,105.083 131.865 C 105.337 132.493,105.718 133.399,105.930 133.877 C 106.142 134.356,106.973 136.411,107.776 138.445 C 108.580 140.479,109.324 142.235,109.431 142.349 C 109.538 142.463,109.625 142.709,109.625 142.896 C 109.625 143.083,109.821 143.602,110.060 144.048 C 110.299 144.495,110.495 144.982,110.496 145.132 C 110.497 145.282,110.650 145.697,110.836 146.054 C 111.022 146.410,111.425 147.340,111.733 148.120 C 112.040 148.900,112.474 149.948,112.698 150.450 C 112.922 150.952,113.105 151.431,113.105 151.514 C 113.105 151.597,113.287 152.067,113.511 152.559 C 114.631 155.028,114.845 155.556,114.845 155.851 C 114.845 156.028,115.041 156.368,115.280 156.607 C 115.950 157.277,131.158 157.289,131.158 156.620 C 131.158 156.387,131.060 156.137,130.941 156.063 C 130.821 155.989,130.723 155.782,130.723 155.602 C 130.723 155.289,129.974 153.491,129.301 152.185 C 129.126 151.846,128.983 151.473,128.983 151.356 C 128.983 151.238,128.733 150.585,128.428 149.905 C 127.611 148.086,127.356 147.493,126.815 146.166 C 126.547 145.508,126.152 144.579,125.938 144.100 C 125.724 143.622,125.329 142.692,125.061 142.034 C 124.520 140.708,124.265 140.114,123.448 138.295 C 123.143 137.615,122.893 136.962,122.893 136.845 C 122.893 136.727,122.751 136.354,122.577 136.015 C 122.063 135.011,121.370 133.426,121.370 133.251 C 121.370 133.162,121.117 132.532,120.808 131.852 C 119.937 129.936,119.710 129.416,119.088 127.896 C 118.770 127.118,118.378 126.188,118.218 125.829 C 118.058 125.470,117.666 124.541,117.347 123.763 C 117.027 122.985,116.632 122.055,116.469 121.697 C 116.110 120.910,116.380 120.358,117.370 119.853 C 122.208 117.385,124.588 114.984,126.602 110.544 C 126.954 109.766,127.243 108.944,127.243 108.718 C 127.243 108.491,127.394 107.945,127.578 107.505 C 128.253 105.888,128.591 100.344,128.250 96.455 C 127.962 93.157,127.775 92.267,126.769 89.396 C 124.621 83.265,118.748 78.230,112.017 76.750 C 111.479 76.632,110.545 76.396,109.943 76.226 C 107.981 75.674,102.990 75.480,90.672 75.478 L 78.572 75.476 78.441 75.965 M207.330 75.737 C 206.877 76.190,206.959 156.736,207.413 156.910 C 207.862 157.082,221.067 157.082,221.516 156.910 C 221.825 156.791,221.860 155.068,221.863 139.672 C 221.865 126.319,221.926 122.447,222.141 122.023 L 222.416 121.479 233.285 121.427 C 239.898 121.395,244.282 121.456,244.481 121.582 C 244.765 121.763,244.821 124.059,244.916 139.361 L 245.024 156.933 252.202 156.991 C 258.757 157.043,259.404 157.016,259.652 156.677 C 259.998 156.205,260.056 76.938,259.711 76.031 L 259.497 75.470 252.261 75.527 L 245.024 75.585 244.916 91.572 C 244.856 100.364,244.728 107.681,244.631 107.830 C 244.336 108.287,222.660 108.219,222.202 107.760 C 221.897 107.456,221.860 105.700,221.860 91.708 C 221.860 79.779,221.797 75.935,221.599 75.737 C 221.225 75.363,207.703 75.363,207.330 75.737 M276.338 75.748 C 276.281 75.897,276.259 94.225,276.290 116.476 L 276.346 156.933 297.444 156.993 C 309.048 157.026,318.763 156.999,319.032 156.934 L 319.521 156.816 319.521 150.427 C 319.521 144.802,319.480 144.022,319.177 143.906 C 318.988 143.833,312.678 143.774,305.156 143.774 C 291.695 143.774,291.474 143.767,291.245 143.338 C 290.842 142.586,291.050 121.844,291.463 121.583 C 291.656 121.461,295.797 121.376,301.588 121.374 C 308.915 121.371,311.452 121.304,311.648 121.109 C 312.020 120.737,312.020 108.736,311.648 108.363 C 311.452 108.168,308.885 108.102,301.432 108.102 C 291.813 108.102,291.470 108.088,291.253 107.682 C 290.848 106.926,290.954 89.599,291.366 89.010 L 291.705 88.526 304.728 88.526 C 316.276 88.526,317.789 88.488,318.092 88.185 C 318.506 87.771,318.611 76.648,318.209 75.897 C 317.925 75.366,276.539 75.219,276.338 75.748 M333.714 75.719 C 333.324 76.118,333.314 156.391,333.703 156.781 C 334.077 157.154,347.816 157.154,348.189 156.781 C 348.388 156.583,348.450 152.642,348.450 140.374 C 348.450 125.987,348.487 124.192,348.792 123.887 C 349.162 123.517,355.884 123.369,356.434 123.719 C 356.578 123.810,356.952 124.470,357.265 125.184 C 357.578 125.898,358.022 126.884,358.253 127.376 C 358.484 127.867,358.676 128.406,358.680 128.572 C 358.684 128.738,358.831 129.064,359.006 129.297 C 359.182 129.529,359.326 129.871,359.327 130.058 C 359.328 130.244,359.481 130.689,359.667 131.046 C 359.853 131.402,360.251 132.332,360.551 133.112 C 361.100 134.536,361.939 136.577,362.474 137.792 C 362.632 138.151,362.955 138.934,363.193 139.532 C 364.044 141.676,364.605 143.027,365.007 143.906 C 365.232 144.398,365.416 144.912,365.416 145.049 C 365.416 145.186,365.612 145.663,365.851 146.110 C 366.090 146.556,366.286 147.074,366.286 147.262 C 366.286 147.449,366.375 147.695,366.483 147.809 C 366.591 147.922,367.238 149.434,367.920 151.169 C 368.602 152.904,369.234 154.421,369.325 154.541 C 369.415 154.660,369.558 155.052,369.644 155.411 C 369.729 155.769,370.004 156.283,370.255 156.552 L 370.712 157.042 378.396 157.042 C 386.953 157.042,386.542 157.123,385.769 155.591 C 385.598 155.253,385.199 154.339,384.882 153.562 C 384.565 152.784,384.167 151.830,383.996 151.441 C 383.826 151.052,383.547 150.416,383.377 150.027 C 383.207 149.638,382.807 148.684,382.489 147.906 C 382.171 147.129,381.779 146.199,381.619 145.840 C 381.458 145.481,381.066 144.551,380.746 143.774 C 380.427 142.996,380.087 142.206,379.991 142.018 C 379.895 141.830,379.551 140.998,379.226 140.170 C 378.901 139.341,378.460 138.271,378.246 137.792 C 378.033 137.314,377.596 136.286,377.276 135.508 C 376.630 133.940,376.298 133.161,375.794 132.028 C 375.607 131.610,375.194 130.631,374.876 129.853 C 374.558 129.076,374.166 128.146,374.006 127.787 C 373.846 127.428,373.454 126.498,373.136 125.721 C 372.818 124.943,372.426 124.013,372.265 123.654 C 370.863 120.529,370.871 120.495,373.167 119.399 C 376.194 117.954,379.304 115.146,380.380 112.887 C 380.522 112.588,380.731 112.197,380.844 112.017 C 383.939 107.107,384.271 95.013,381.480 88.829 C 381.258 88.337,381.077 87.841,381.077 87.725 C 381.077 87.222,378.381 83.514,377.125 82.290 C 373.712 78.963,369.818 77.169,363.241 75.892 C 361.342 75.523,334.061 75.364,333.714 75.719 M103.317 87.649 C 111.180 88.787,114.419 93.390,113.319 101.865 C 112.414 108.841,109.013 111.125,99.250 111.313 L 94.421 111.407 93.866 110.852 L 93.312 110.297 93.312 99.643 C 93.312 88.588,93.356 88.017,94.233 87.664 C 94.837 87.422,101.668 87.410,103.317 87.649 M358.238 87.661 C 361.188 88.096,361.972 88.302,363.244 88.980 C 366.404 90.665,367.878 93.285,368.555 98.423 C 368.795 100.245,368.063 104.131,367.132 105.976 C 365.121 109.959,361.617 111.355,353.616 111.361 C 347.764 111.366,348.450 112.955,348.450 99.402 C 348.450 88.599,348.462 88.297,348.885 87.874 C 349.380 87.379,355.393 87.242,358.238 87.661 M39.680 93.218 C 39.868 93.406,40.022 93.885,40.022 94.283 C 40.022 94.681,40.207 95.628,40.434 96.388 C 40.661 97.148,40.910 98.211,40.989 98.749 C 41.067 99.288,41.267 100.169,41.434 100.707 C 41.600 101.245,41.840 102.200,41.966 102.828 C 42.093 103.456,42.301 104.483,42.427 105.111 C 42.554 105.740,42.810 106.738,42.996 107.331 C 43.182 107.924,43.409 108.903,43.500 109.506 C 43.649 110.487,43.941 111.788,44.624 114.519 C 44.744 114.997,44.978 116.100,45.145 116.968 C 45.311 117.837,45.537 118.718,45.647 118.926 C 45.757 119.134,45.954 119.940,46.085 120.718 C 46.216 121.495,46.472 122.667,46.653 123.321 C 47.590 126.708,47.865 126.591,38.995 126.591 L 31.530 126.591 31.290 126.065 C 31.036 125.506,31.218 124.154,31.863 121.812 C 32.044 121.158,32.191 120.412,32.191 120.153 C 32.191 119.895,32.327 119.353,32.494 118.950 C 32.660 118.546,32.867 117.688,32.954 117.041 C 33.040 116.395,33.234 115.563,33.385 115.192 C 33.535 114.822,33.722 114.011,33.800 113.389 C 33.879 112.768,34.075 111.936,34.235 111.541 C 34.396 111.145,34.592 110.313,34.671 109.692 C 34.749 109.071,34.957 108.217,35.134 107.796 C 35.310 107.374,35.453 106.756,35.451 106.424 C 35.449 106.091,35.637 105.182,35.869 104.405 C 36.100 103.627,36.395 102.477,36.524 101.849 C 37.082 99.137,37.261 98.362,37.568 97.336 C 37.747 96.737,37.976 95.661,38.078 94.943 C 38.209 94.021,38.400 93.526,38.731 93.257 C 39.299 92.796,39.259 92.798,39.680 93.218 M15.562 175.869 C 10.279 177.017,9.132 179.692,9.138 190.842 C 9.144 202.111,10.539 204.909,16.496 205.604 C 23.484 206.418,27.404 203.136,27.406 196.470 C 27.406 195.343,27.233 195.278,24.470 195.368 L 22.512 195.432 22.352 197.352 C 22.102 200.365,21.019 201.452,18.271 201.452 C 14.438 201.452,14.247 200.938,14.247 190.613 L 14.247 182.313 14.915 181.477 C 17.353 178.427,21.927 179.644,22.316 183.447 C 22.492 185.161,22.537 185.185,25.318 185.069 C 27.599 184.973,27.533 185.054,27.196 182.763 C 26.374 177.183,21.848 174.501,15.562 175.869 M49.359 175.866 C 44.142 176.908,42.850 179.859,42.849 190.740 C 42.848 201.904,44.298 204.862,50.124 205.578 C 55.309 206.216,58.648 204.795,60.422 201.196 L 61.011 200.000 61.011 190.647 L 61.011 181.294 60.309 179.956 C 58.416 176.350,54.418 174.857,49.359 175.866 M118.962 175.866 C 111.821 177.291,110.778 186.067,117.254 190.234 C 118.319 190.920,118.473 191.009,120.494 192.122 C 125.224 194.726,126.876 197.356,125.348 199.847 C 123.469 202.911,119.275 202.154,117.577 198.445 L 117.044 197.281 115.999 197.294 C 113.091 197.331,112.115 198.145,112.872 199.903 C 115.961 207.084,126.529 207.986,130.007 201.367 C 130.907 199.655,130.906 195.577,130.005 193.870 C 129.442 192.803,126.349 189.668,125.860 189.668 C 125.742 189.668,125.491 189.533,125.303 189.368 C 125.114 189.203,124.176 188.654,123.219 188.147 C 118.126 185.450,116.910 183.639,118.516 181.140 C 120.162 178.579,123.673 179.134,125.413 182.232 C 126.127 183.503,126.304 183.553,127.896 182.926 C 128.503 182.686,129.235 182.490,129.522 182.490 C 130.298 182.490,130.387 182.138,129.940 180.824 C 128.613 176.918,124.040 174.853,118.962 175.866 M254.411 175.877 C 251.522 176.452,249.740 177.984,248.661 180.824 C 248.192 182.057,248.178 182.342,248.177 190.612 L 248.176 199.130 248.759 200.732 C 250.160 204.581,253.789 206.277,259.145 205.586 C 263.498 205.024,266.431 201.499,266.446 196.810 C 266.451 195.346,266.415 195.324,264.046 195.324 C 261.544 195.324,261.687 195.200,261.184 197.803 C 260.634 200.645,259.721 201.452,257.055 201.452 C 255.130 201.452,254.102 200.826,253.419 199.237 C 252.736 197.650,252.715 183.665,253.393 182.176 C 254.471 179.810,257.827 179.029,259.858 180.672 C 260.703 181.357,260.840 181.649,261.226 183.610 C 261.509 185.046,261.599 185.093,264.093 185.098 C 266.770 185.102,266.768 185.106,265.942 181.934 C 264.599 176.781,260.554 174.656,254.411 175.877 M341.599 175.938 C 338.728 176.604,337.338 177.773,336.133 180.533 L 335.516 181.947 335.512 190.544 L 335.508 199.140 336.127 200.677 C 337.371 203.766,339.254 205.188,342.628 205.587 C 348.462 206.277,352.359 204.158,353.230 199.822 C 353.862 196.675,353.919 195.715,353.831 189.827 C 353.737 183.513,353.409 180.712,352.666 179.863 C 352.501 179.674,352.365 179.405,352.365 179.266 C 352.365 179.126,352.015 178.624,351.587 178.150 C 349.554 175.900,345.568 175.017,341.599 175.938 M77.676 176.261 C 77.498 176.476,77.446 180.483,77.486 190.889 L 77.542 205.220 79.826 205.220 L 82.110 205.220 82.225 195.976 C 82.288 190.892,82.361 186.707,82.388 186.678 C 82.812 186.201,83.278 186.953,85.245 191.300 C 85.625 192.137,86.118 193.214,86.343 193.692 C 88.029 197.286,88.526 198.373,88.526 198.465 C 88.526 198.522,88.858 199.283,89.262 200.155 C 90.870 203.618,91.136 204.222,91.136 204.412 C 91.136 205.086,91.963 205.329,94.255 205.329 L 96.577 205.329 96.521 190.701 L 96.465 176.074 94.290 176.074 L 92.115 176.074 92.007 184.339 C 91.866 195.045,91.839 195.097,89.331 189.451 C 89.092 188.912,88.718 188.080,88.500 187.602 C 88.283 187.123,87.819 186.096,87.469 185.318 C 87.119 184.541,86.567 183.317,86.242 182.599 C 85.916 181.881,85.460 180.854,85.228 180.315 C 84.997 179.777,84.616 178.945,84.382 178.467 C 84.149 177.988,83.958 177.470,83.958 177.315 C 83.961 176.123,78.545 175.215,77.676 176.261 M145.523 176.384 C 145.279 176.839,145.222 178.818,145.429 179.592 C 145.550 180.043,145.691 180.068,148.464 180.136 C 152.595 180.236,152.136 178.642,152.208 193.163 L 152.267 205.344 154.600 205.282 L 156.933 205.220 157.042 193.102 C 157.171 178.672,156.714 180.252,160.801 180.098 L 163.676 179.989 163.676 178.032 L 163.676 176.074 154.713 176.017 C 146.025 175.962,145.742 175.973,145.523 176.384 M178.738 176.090 C 178.649 176.181,178.575 182.800,178.575 190.799 L 178.575 205.343 181.022 205.282 L 183.469 205.220 183.527 199.578 C 183.595 193.030,183.560 193.148,185.441 193.148 C 186.768 193.148,187.519 193.805,187.928 195.324 C 188.054 195.792,188.253 196.234,188.369 196.306 C 188.486 196.378,188.584 196.602,188.588 196.805 C 188.591 197.007,188.835 197.662,189.129 198.260 C 189.424 198.858,189.665 199.499,189.666 199.685 C 189.667 199.870,189.758 200.115,189.867 200.228 C 189.977 200.342,190.421 201.347,190.854 202.463 C 192.053 205.549,191.762 205.329,194.642 205.329 L 197.118 205.329 196.981 204.644 C 196.906 204.267,196.638 203.508,196.387 202.958 C 195.712 201.483,195.420 200.808,194.778 199.239 C 194.460 198.461,194.064 197.531,193.898 197.172 C 193.414 196.124,192.061 192.675,192.061 192.488 C 192.061 192.395,192.682 191.830,193.440 191.234 C 197.758 187.841,197.307 179.631,192.678 177.349 C 190.038 176.047,190.370 176.101,184.448 176.011 C 181.397 175.964,178.828 176.000,178.738 176.090 M212.869 176.110 C 212.505 176.474,212.737 198.218,213.121 199.674 C 214.080 203.315,216.232 205.122,220.162 205.586 C 225.807 206.254,229.536 204.553,231.052 200.620 L 231.652 199.064 231.595 187.569 L 231.539 176.074 229.255 176.074 L 226.971 176.074 226.862 187.058 L 226.754 198.042 226.210 199.122 C 224.789 201.943,220.483 202.395,218.649 199.915 C 217.853 198.838,217.730 197.036,217.729 186.375 C 217.727 177.325,217.690 176.215,217.383 176.097 C 216.915 175.918,213.051 175.929,212.869 176.110 M280.596 176.384 C 280.350 176.843,280.296 178.820,280.507 179.608 C 280.634 180.082,280.725 180.098,283.277 180.101 C 287.762 180.106,287.330 178.691,287.330 193.376 L 287.330 205.329 289.717 205.329 L 292.105 205.329 292.164 193.156 C 292.235 178.661,291.783 180.253,295.875 180.098 L 298.749 179.989 298.749 178.032 L 298.749 176.074 289.786 176.017 C 281.099 175.962,280.816 175.973,280.596 176.384 M314.313 176.378 C 314.066 176.840,313.972 204.351,314.216 204.985 C 314.325 205.270,314.757 205.329,316.719 205.329 L 319.090 205.329 319.034 190.701 L 318.978 176.074 316.760 176.012 C 314.741 175.956,314.521 175.989,314.313 176.378 M370.358 176.231 C 370.004 176.491,369.983 177.431,370.036 190.865 L 370.092 205.220 372.206 205.282 L 374.320 205.345 374.381 196.212 C 374.461 184.395,374.554 184.257,377.696 191.300 C 377.857 191.659,378.232 192.490,378.531 193.148 C 378.831 193.806,379.330 194.908,379.641 195.595 C 379.952 196.283,380.462 197.409,380.775 198.097 C 381.087 198.785,381.517 199.739,381.729 200.218 C 381.942 200.696,382.376 201.675,382.695 202.393 C 383.013 203.110,383.459 204.040,383.686 204.459 L 384.099 205.220 386.448 205.220 L 388.798 205.220 388.854 190.770 C 388.898 179.353,388.853 176.283,388.637 176.145 C 388.198 175.867,385.112 175.932,384.818 176.226 C 384.624 176.420,384.557 178.577,384.557 184.587 C 384.557 190.043,384.482 192.734,384.327 192.830 C 383.997 193.034,383.034 192.752,383.034 192.452 C 383.034 192.312,382.838 191.776,382.599 191.260 C 382.360 190.743,381.968 189.880,381.729 189.342 C 381.285 188.343,380.916 187.520,379.876 185.209 C 379.314 183.961,379.033 183.333,378.008 181.022 C 377.395 179.641,376.086 176.807,375.872 176.400 C 375.639 175.956,370.929 175.811,370.358 176.231 M54.154 180.261 C 54.570 180.471,55.206 181.066,55.568 181.585 L 56.226 182.528 56.226 190.720 L 56.226 198.912 55.699 199.691 C 54.037 202.146,50.153 202.164,48.555 199.723 C 48.214 199.204,48.178 198.339,48.178 190.640 L 48.178 182.130 48.761 181.366 C 49.870 179.913,52.422 179.390,54.154 180.261 M189.479 180.540 C 192.034 182.215,192.074 186.844,189.548 188.500 C 188.694 189.059,184.576 189.199,184.010 188.687 C 183.302 188.046,183.351 180.723,184.067 180.201 C 184.853 179.630,188.432 179.854,189.479 180.540 M347.050 180.493 C 348.585 181.636,348.559 181.465,348.559 190.647 C 348.559 199.941,348.581 199.802,346.936 200.890 C 345.732 201.687,343.362 201.703,342.182 200.922 C 340.458 199.780,340.402 199.458,340.402 190.620 C 340.402 181.997,340.443 181.732,341.926 180.575 C 343.043 179.704,345.929 179.658,347.050 180.493 " stroke="none" fill="#090505" fill-rule="evenodd"></path><path id="path1" d="M232.576 11.587 C 232.250 12.093,231.883 12.675,231.761 12.882 C 231.639 13.088,231.050 14.067,230.452 15.057 C 229.855 16.047,229.290 17.004,229.198 17.183 C 229.105 17.363,228.403 18.537,227.636 19.793 C 226.869 21.049,225.672 23.039,224.975 24.215 C 224.279 25.391,223.542 26.614,223.339 26.934 C 223.135 27.253,222.548 28.233,222.034 29.110 C 220.960 30.941,220.986 30.897,219.145 33.931 C 218.383 35.188,217.189 37.177,216.492 38.353 C 215.796 39.529,215.059 40.752,214.856 41.072 C 214.653 41.392,214.085 42.338,213.594 43.176 C 213.104 44.013,212.536 44.960,212.333 45.279 C 212.129 45.599,211.394 46.822,210.699 47.998 C 210.003 49.174,208.953 50.919,208.365 51.876 C 207.705 52.949,207.315 53.825,207.345 54.160 L 207.395 54.704 214.696 54.761 L 221.996 54.818 222.492 54.291 C 222.764 54.001,223.361 53.143,223.817 52.385 C 224.514 51.227,226.628 47.688,227.407 46.372 C 232.364 38.012,233.046 36.959,233.473 37.021 C 233.913 37.085,234.176 37.474,236.977 42.197 C 238.509 44.781,241.139 49.158,241.420 49.592 C 241.536 49.772,242.189 50.880,242.871 52.055 C 243.552 53.230,244.325 54.333,244.588 54.505 C 245.375 55.021,259.563 54.854,259.664 54.328 C 259.704 54.122,258.531 51.945,257.057 49.491 C 255.583 47.038,254.182 44.699,253.942 44.295 C 253.703 43.891,253.116 42.901,252.637 42.096 C 252.159 41.290,251.572 40.297,251.332 39.889 C 251.093 39.480,249.674 37.116,248.180 34.636 C 246.685 32.155,245.363 29.961,245.243 29.760 C 245.123 29.560,244.633 28.741,244.154 27.942 C 243.676 27.143,243.185 26.328,243.064 26.132 C 242.942 25.935,242.112 24.551,241.218 23.056 C 240.324 21.561,239.494 20.173,239.372 19.972 C 239.251 19.772,238.784 18.989,238.335 18.232 C 237.886 17.476,237.299 16.499,237.030 16.060 C 236.761 15.622,236.003 14.331,235.345 13.192 C 233.833 10.572,233.395 10.318,232.576 11.587 M161.827 73.888 C 149.278 75.257,142.083 82.924,140.640 96.465 C 140.133 101.233,140.130 131.351,140.637 135.970 C 141.588 144.633,144.526 150.453,149.866 154.252 C 151.285 155.261,155.291 157.259,155.896 157.259 C 156.007 157.259,156.727 157.446,157.495 157.673 C 162.211 159.070,171.922 159.029,175.856 157.596 C 176.335 157.421,176.873 157.274,177.053 157.268 C 178.162 157.232,182.242 155.066,184.256 153.444 C 189.855 148.934,192.839 140.968,192.665 131.003 L 192.605 127.588 192.061 127.437 C 191.352 127.241,177.980 127.240,177.270 127.437 L 176.726 127.588 176.587 132.255 C 176.307 141.640,174.027 144.335,166.395 144.305 C 160.664 144.283,158.177 142.490,156.910 137.466 C 156.224 134.746,156.279 97.271,156.972 94.725 C 158.288 89.899,162.276 87.320,167.374 87.999 C 174.175 88.904,176.264 91.307,176.565 98.568 C 176.627 100.084,176.759 101.454,176.858 101.614 C 177.141 102.071,192.210 102.036,192.501 101.577 C 193.008 100.773,192.313 93.358,191.506 90.966 C 191.332 90.453,191.191 89.881,191.191 89.694 C 191.191 89.506,191.053 89.045,190.884 88.668 C 190.715 88.291,190.306 87.346,189.975 86.569 C 189.644 85.791,189.244 85.000,189.086 84.812 C 188.928 84.623,188.798 84.367,188.798 84.243 C 188.798 83.491,184.943 79.357,182.971 77.995 C 178.095 74.627,169.810 73.018,161.827 73.888 M170.884 74.485 C 171.824 74.657,173.181 74.866,173.899 74.947 C 174.617 75.029,175.449 75.217,175.748 75.364 C 176.047 75.511,176.632 75.696,177.048 75.775 C 177.740 75.907,178.390 76.170,180.533 77.182 C 185.153 79.366,190.973 87.219,190.973 91.270 C 190.973 91.526,191.121 92.154,191.303 92.667 C 191.670 93.710,192.179 99.772,191.969 100.609 L 191.834 101.148 184.606 101.090 L 177.379 101.033 177.042 97.662 C 176.435 91.593,174.850 89.192,170.602 87.909 C 168.696 87.333,164.323 87.240,162.973 87.747 C 162.522 87.916,161.874 88.116,161.533 88.191 C 159.682 88.600,157.815 90.624,156.663 93.471 L 156.067 94.943 156.004 114.845 C 155.925 139.509,155.925 139.511,158.877 142.526 C 161.989 145.705,170.276 145.840,173.920 142.773 C 176.272 140.793,176.925 138.545,177.234 131.376 L 177.379 128.004 184.666 128.004 L 191.952 128.004 191.909 132.463 C 191.866 136.980,191.766 137.930,191.003 141.055 C 189.553 146.998,185.965 152.227,181.733 154.565 C 179.504 155.797,178.026 156.423,176.291 156.870 C 175.813 156.994,174.981 157.234,174.443 157.404 C 171.952 158.192,160.988 158.181,158.809 157.388 C 158.286 157.198,157.618 157.042,157.327 157.042 C 156.632 157.042,153.292 155.695,151.628 154.744 C 146.978 152.087,142.993 146.282,142.007 140.729 C 141.890 140.071,141.628 138.994,141.425 138.336 C 141.087 137.245,141.055 135.308,141.058 116.259 L 141.061 95.378 141.547 93.651 C 141.815 92.702,142.034 91.722,142.034 91.474 C 142.034 91.091,142.629 89.305,143.633 86.678 C 143.770 86.319,144.054 85.783,144.263 85.487 C 144.473 85.191,144.644 84.872,144.644 84.778 C 144.644 82.713,152.282 76.599,155.868 75.794 C 156.215 75.716,156.890 75.517,157.368 75.352 C 157.847 75.187,159.021 74.945,159.978 74.814 C 160.935 74.684,162.110 74.497,162.588 74.399 C 164.063 74.097,169.051 74.148,170.884 74.485 M29.168 75.124 C 28.920 75.422,28.478 76.890,27.949 79.173 C 27.598 80.688,26.798 83.883,25.908 87.330 C 25.660 88.287,25.394 89.462,25.316 89.940 C 25.238 90.419,25.087 90.978,24.982 91.183 C 24.876 91.388,24.649 92.219,24.477 93.031 C 24.305 93.844,23.956 95.340,23.702 96.357 C 23.447 97.374,23.051 98.964,22.821 99.891 C 22.591 100.818,22.208 102.360,21.968 103.317 C 21.729 104.274,21.346 105.816,21.116 106.743 C 20.886 107.670,20.490 109.260,20.235 110.277 C 19.980 111.294,19.642 112.713,19.483 113.431 C 19.324 114.149,19.028 115.372,18.825 116.150 C 18.030 119.190,17.237 122.345,16.857 123.980 C 16.597 125.100,16.300 126.300,15.567 129.201 C 15.400 129.859,15.056 131.229,14.802 132.246 C 14.548 133.263,14.148 134.802,13.913 135.667 C 13.678 136.532,13.486 137.390,13.486 137.575 C 13.486 137.759,13.293 138.618,13.058 139.483 C 12.643 141.011,12.156 142.920,11.269 146.493 C 11.031 147.450,10.701 148.771,10.534 149.429 C 9.731 152.607,9.500 153.557,9.219 154.836 C 9.052 155.596,8.862 156.304,8.798 156.408 C 8.188 157.395,8.769 157.477,16.396 157.477 C 24.717 157.477,24.197 157.609,24.685 155.366 C 24.983 153.996,25.513 151.907,26.000 150.190 C 26.418 148.714,26.956 146.559,27.321 144.902 C 27.487 144.148,27.708 143.364,27.813 143.162 C 27.917 142.960,28.069 142.338,28.150 141.780 C 28.379 140.205,27.766 140.283,39.393 140.346 L 49.917 140.402 50.206 141.272 C 50.473 142.078,50.971 144.160,51.661 147.363 C 52.093 149.363,52.628 151.597,52.965 152.800 C 53.132 153.399,53.334 154.395,53.414 155.015 C 53.494 155.635,53.742 156.443,53.965 156.810 L 54.371 157.477 61.525 157.477 C 70.165 157.477,69.768 157.727,68.427 153.127 C 68.270 152.588,67.919 151.169,67.647 149.973 C 67.376 148.777,66.971 147.169,66.747 146.402 C 66.523 145.634,66.340 144.784,66.340 144.513 C 66.340 144.241,66.235 143.744,66.105 143.407 C 65.976 143.071,65.671 141.914,65.427 140.837 C 65.183 139.761,64.857 138.341,64.702 137.684 C 64.547 137.026,64.258 135.802,64.061 134.965 C 63.864 134.127,63.564 132.904,63.395 132.246 C 62.640 129.315,62.353 128.136,62.095 126.917 C 61.777 125.410,61.248 123.261,60.812 121.697 C 60.645 121.098,60.445 120.218,60.366 119.739 C 60.288 119.260,60.088 118.380,59.923 117.781 C 59.757 117.183,59.416 115.813,59.164 114.736 C 58.912 113.660,58.523 112.045,58.299 111.147 C 57.859 109.385,57.213 106.690,56.526 103.752 C 56.288 102.735,55.958 101.414,55.793 100.816 C 55.627 100.218,55.426 99.337,55.347 98.858 C 55.267 98.380,55.029 97.352,54.818 96.574 C 54.276 94.584,53.935 93.191,53.618 91.680 C 53.362 90.462,53.080 89.303,52.320 86.351 C 52.151 85.693,51.851 84.470,51.655 83.632 C 51.458 82.795,51.158 81.523,50.988 80.805 C 50.819 80.087,50.501 78.701,50.283 77.725 C 50.065 76.749,49.720 75.697,49.517 75.387 L 49.147 74.823 39.282 74.823 C 31.156 74.823,29.373 74.876,29.168 75.124 M78.153 75.095 C 77.890 75.502,77.815 156.221,78.078 156.912 L 78.293 157.477 85.877 157.477 C 92.949 157.477,93.486 157.450,93.822 157.079 C 94.150 156.717,94.182 155.255,94.182 140.543 L 94.182 124.405 94.740 124.193 C 96.432 123.549,101.453 124.069,101.684 124.912 C 101.832 125.449,102.501 127.099,103.126 128.463 C 103.351 128.955,103.535 129.466,103.535 129.598 C 103.535 129.731,103.721 130.210,103.949 130.662 C 104.176 131.114,105.019 133.148,105.821 135.182 C 106.623 137.216,107.367 138.973,107.473 139.086 C 107.580 139.200,107.667 139.434,107.667 139.606 C 107.667 139.779,107.851 140.322,108.076 140.814 C 108.301 141.305,108.683 142.197,108.925 142.795 C 109.687 144.680,110.521 146.685,110.840 147.396 C 111.009 147.773,111.147 148.145,111.147 148.223 C 111.147 148.301,111.331 148.776,111.555 149.278 C 111.779 149.780,112.413 151.324,112.963 152.711 C 113.514 154.097,114.113 155.516,114.294 155.864 C 114.476 156.213,114.625 156.617,114.626 156.762 C 114.629 157.399,115.597 157.477,123.516 157.477 C 132.733 157.477,132.317 157.579,131.411 155.545 C 131.165 154.993,130.513 153.464,129.962 152.148 C 129.411 150.832,128.873 149.560,128.766 149.320 C 128.592 148.933,127.391 146.074,126.114 143.013 C 125.865 142.414,125.531 141.631,125.372 141.272 C 125.214 140.914,124.634 139.543,124.085 138.227 C 123.535 136.911,122.952 135.541,122.790 135.182 C 122.627 134.823,122.234 133.893,121.916 133.116 C 121.598 132.338,121.205 131.408,121.042 131.049 C 120.880 130.691,120.352 129.442,119.867 128.274 C 119.383 127.107,118.600 125.247,118.127 124.142 C 116.714 120.838,116.722 120.742,118.490 119.963 C 131.958 114.029,132.923 88.246,120.000 79.650 C 119.426 79.268,118.903 78.956,118.837 78.956 C 118.772 78.956,118.459 78.781,118.141 78.566 C 116.149 77.221,111.924 75.905,107.558 75.269 C 103.800 74.722,78.492 74.572,78.153 75.095 M206.678 75.084 C 206.298 75.464,206.298 156.836,206.678 157.216 C 206.870 157.409,208.901 157.477,214.464 157.477 C 220.028 157.477,222.058 157.409,222.251 157.216 C 222.450 157.017,222.512 152.877,222.512 139.910 C 222.512 128.576,222.588 122.723,222.737 122.444 C 223.021 121.914,243.856 121.770,244.196 122.295 C 244.293 122.444,244.421 130.397,244.481 139.967 L 244.589 157.368 252.238 157.425 C 258.993 157.476,259.928 157.442,260.234 157.136 C 260.747 156.623,260.656 75.361,260.141 75.036 C 259.517 74.642,244.767 74.766,244.613 75.167 C 244.540 75.357,244.479 82.624,244.477 91.317 C 244.476 100.011,244.396 107.247,244.300 107.397 C 244.163 107.613,241.831 107.659,233.374 107.615 L 222.621 107.558 222.565 91.483 C 222.526 80.048,222.439 75.324,222.267 75.116 C 221.932 74.713,207.079 74.683,206.678 75.084 M275.846 75.084 C 275.466 75.464,275.466 156.836,275.846 157.216 C 276.224 157.595,319.534 157.595,319.913 157.216 C 320.296 156.833,320.286 143.872,319.902 143.623 C 319.753 143.527,313.366 143.399,305.710 143.339 L 291.789 143.230 291.733 132.804 C 291.688 124.607,291.735 122.340,291.950 122.203 C 292.101 122.108,296.531 122.027,301.794 122.023 C 309.066 122.018,311.495 121.950,311.909 121.741 L 312.452 121.466 312.510 114.853 C 312.549 110.394,312.492 108.164,312.336 108.008 C 312.182 107.854,308.701 107.740,301.947 107.667 L 291.789 107.558 291.732 98.546 C 291.688 91.481,291.735 89.496,291.950 89.360 C 292.101 89.264,298.054 89.184,305.179 89.182 C 316.015 89.179,318.202 89.128,318.555 88.870 C 319.147 88.438,319.336 76.216,318.765 75.343 L 318.424 74.823 297.265 74.823 C 281.099 74.823,276.045 74.885,275.846 75.084 M333.002 75.381 C 332.700 76.176,332.712 156.491,333.015 157.056 C 333.329 157.644,348.177 157.719,348.761 157.135 C 349.066 156.830,349.103 155.031,349.103 140.599 L 349.103 124.405 349.661 124.193 C 351.312 123.565,356.228 124.020,356.521 124.827 C 356.634 125.139,356.861 125.688,357.025 126.047 C 357.189 126.406,357.520 127.189,357.759 127.787 C 358.437 129.477,359.333 131.633,359.671 132.387 C 359.840 132.764,359.978 133.141,359.978 133.225 C 359.978 133.308,360.117 133.685,360.286 134.062 C 360.813 135.238,361.662 137.294,362.271 138.870 C 362.872 140.426,363.390 141.675,363.673 142.256 C 363.762 142.438,364.495 144.248,365.301 146.280 C 366.108 148.311,366.942 150.364,367.154 150.843 C 367.365 151.321,367.757 152.251,368.023 152.909 C 368.289 153.567,368.693 154.524,368.919 155.036 C 369.146 155.547,369.331 156.110,369.331 156.286 C 369.331 157.443,369.586 157.477,378.222 157.477 C 386.882 157.477,386.947 157.468,386.624 156.345 C 386.475 155.825,385.042 152.355,384.351 150.843 C 384.133 150.364,383.688 149.295,383.363 148.466 C 383.038 147.637,382.686 146.805,382.582 146.617 C 382.478 146.429,382.141 145.639,381.832 144.861 C 381.524 144.084,381.138 143.154,380.975 142.795 C 380.812 142.436,380.418 141.506,380.100 140.729 C 379.781 139.951,379.368 138.972,379.182 138.554 C 378.678 137.421,378.346 136.641,377.700 135.073 C 377.380 134.296,376.943 133.268,376.729 132.790 C 376.516 132.311,376.074 131.234,375.748 130.397 C 375.422 129.560,375.086 128.777,375.003 128.657 C 374.919 128.537,374.569 127.705,374.225 126.808 C 373.881 125.911,373.530 125.079,373.446 124.959 C 373.361 124.840,372.973 123.932,372.584 122.942 L 371.876 121.142 372.381 120.604 C 372.660 120.308,372.997 120.065,373.130 120.065 C 374.097 120.065,377.948 117.067,379.627 115.006 C 384.877 108.564,385.485 94.079,380.845 86.025 C 377.455 80.143,371.336 76.559,362.480 75.269 C 359.681 74.861,358.375 74.826,346.324 74.824 L 333.214 74.823 333.002 75.381 M49.340 76.726 C 49.589 77.414,49.892 78.540,50.012 79.229 C 50.132 79.917,50.319 80.651,50.427 80.860 C 50.535 81.069,50.693 81.729,50.777 82.327 C 50.861 82.926,51.066 83.855,51.233 84.394 C 51.570 85.482,52.059 87.472,52.517 89.614 C 52.683 90.392,52.933 91.468,53.072 92.007 C 53.603 94.061,54.210 96.603,54.827 99.347 C 54.955 99.916,55.237 101.017,55.455 101.794 C 55.673 102.572,55.955 103.698,56.082 104.296 C 56.209 104.894,56.426 105.922,56.565 106.580 C 56.705 107.238,56.951 108.167,57.113 108.646 C 57.275 109.125,57.469 109.956,57.544 110.495 C 57.619 111.033,57.867 112.037,58.095 112.725 C 58.323 113.414,58.510 114.224,58.510 114.527 C 58.510 114.829,58.642 115.393,58.804 115.780 C 58.966 116.167,59.169 116.971,59.255 117.568 C 59.342 118.164,59.549 119.092,59.716 119.630 C 60.053 120.719,60.542 122.709,61.000 124.850 C 61.313 126.317,61.516 127.136,62.224 129.794 C 62.454 130.659,62.643 131.567,62.643 131.812 C 62.643 132.056,62.838 132.814,63.078 133.494 C 63.317 134.175,63.513 134.973,63.513 135.268 C 63.513 135.563,63.698 136.398,63.925 137.124 C 64.152 137.851,64.439 138.934,64.562 139.532 C 64.972 141.521,65.274 142.784,65.602 143.883 C 65.780 144.481,66.015 145.459,66.123 146.058 C 66.343 147.272,66.878 149.467,67.317 150.952 C 67.476 151.490,67.671 152.371,67.751 152.909 C 67.830 153.448,68.043 154.290,68.223 154.781 C 68.403 155.272,68.518 155.957,68.479 156.303 L 68.407 156.933 61.678 156.991 C 57.662 157.025,54.866 156.965,54.744 156.843 C 54.435 156.534,53.740 154.405,53.732 153.744 C 53.728 153.426,53.530 152.545,53.293 151.787 C 53.055 151.028,52.859 150.136,52.858 149.804 C 52.856 149.472,52.659 148.644,52.420 147.963 C 52.181 147.282,51.985 146.450,51.985 146.114 C 51.985 145.778,51.789 144.946,51.550 144.265 C 51.310 143.585,51.115 142.703,51.115 142.306 C 51.115 141.208,50.567 140.105,49.894 139.849 C 48.984 139.503,28.599 139.666,28.243 140.023 C 27.972 140.293,27.593 141.452,27.157 143.339 C 27.032 143.877,26.755 144.954,26.541 145.731 C 25.943 147.904,25.664 148.986,25.334 150.408 C 24.250 155.082,23.673 156.824,23.165 156.948 C 22.926 157.007,19.793 157.028,16.204 156.994 L 9.679 156.933 9.613 156.139 C 9.577 155.702,9.696 154.987,9.879 154.549 C 10.062 154.112,10.276 153.246,10.355 152.625 C 10.435 152.004,10.622 151.251,10.771 150.952 C 10.920 150.653,11.114 149.869,11.202 149.212 C 11.290 148.554,11.485 147.771,11.637 147.471 C 11.788 147.172,11.984 146.399,12.071 145.753 C 12.159 145.106,12.354 144.274,12.505 143.904 C 12.656 143.533,12.850 142.741,12.937 142.142 C 13.023 141.544,13.184 140.886,13.294 140.680 C 13.404 140.474,13.588 139.789,13.702 139.158 C 13.816 138.526,14.053 137.520,14.229 136.922 C 14.405 136.324,14.646 135.394,14.765 134.856 C 14.883 134.318,15.085 133.461,15.212 132.953 C 15.339 132.444,15.541 131.637,15.661 131.158 C 15.780 130.680,15.976 129.897,16.096 129.418 C 16.215 128.940,16.419 128.132,16.548 127.624 C 16.677 127.115,16.885 126.210,17.012 125.612 C 17.138 125.014,17.424 123.961,17.647 123.273 C 17.871 122.584,18.053 121.798,18.053 121.525 C 18.053 121.252,18.249 120.472,18.488 119.791 C 18.728 119.111,18.923 118.303,18.923 117.997 C 18.923 117.691,19.059 117.116,19.225 116.719 C 19.391 116.322,19.593 115.567,19.674 115.040 C 19.755 114.514,19.956 113.643,20.122 113.105 C 20.479 111.946,21.027 109.731,21.334 108.211 C 21.454 107.613,21.695 106.754,21.869 106.303 C 22.043 105.852,22.186 105.238,22.186 104.939 C 22.186 104.639,22.382 103.837,22.621 103.156 C 22.860 102.475,23.056 101.695,23.056 101.422 C 23.056 101.149,23.239 100.363,23.462 99.675 C 23.685 98.986,23.979 97.909,24.115 97.281 C 24.250 96.653,24.472 95.625,24.608 94.997 C 24.743 94.369,25.037 93.292,25.260 92.604 C 25.483 91.915,25.666 91.129,25.666 90.856 C 25.666 90.583,25.862 89.803,26.101 89.122 C 26.340 88.442,26.536 87.634,26.536 87.329 C 26.536 87.023,26.676 86.437,26.848 86.026 C 27.019 85.616,27.227 84.812,27.310 84.239 C 27.392 83.666,27.588 82.883,27.745 82.499 C 27.901 82.115,28.097 81.332,28.180 80.759 C 28.262 80.186,28.453 79.414,28.604 79.044 C 28.755 78.673,28.949 77.863,29.034 77.243 C 29.293 75.357,28.600 75.476,39.358 75.476 L 48.887 75.476 49.340 76.726 M105.810 75.699 C 107.480 75.819,109.340 76.056,109.943 76.226 C 110.545 76.396,111.479 76.632,112.017 76.750 C 118.748 78.230,124.621 83.265,126.769 89.396 C 127.775 92.267,127.962 93.157,128.250 96.455 C 128.591 100.344,128.253 105.888,127.578 107.505 C 127.394 107.945,127.243 108.491,127.243 108.718 C 127.243 108.944,126.954 109.766,126.602 110.544 C 124.588 114.984,122.208 117.385,117.370 119.853 C 116.380 120.358,116.110 120.910,116.469 121.697 C 116.632 122.055,117.027 122.985,117.347 123.763 C 117.666 124.541,118.058 125.470,118.218 125.829 C 118.378 126.188,118.770 127.118,119.088 127.896 C 119.710 129.416,119.937 129.936,120.808 131.852 C 121.117 132.532,121.370 133.162,121.370 133.251 C 121.370 133.426,122.063 135.011,122.577 136.015 C 122.751 136.354,122.893 136.727,122.893 136.845 C 122.893 136.962,123.143 137.615,123.448 138.295 C 124.265 140.114,124.520 140.708,125.061 142.034 C 125.329 142.692,125.724 143.622,125.938 144.100 C 126.152 144.579,126.547 145.508,126.815 146.166 C 127.356 147.493,127.611 148.086,128.428 149.905 C 128.733 150.585,128.983 151.238,128.983 151.356 C 128.983 151.473,129.126 151.846,129.301 152.185 C 129.974 153.491,130.723 155.289,130.723 155.602 C 130.723 155.782,130.821 155.989,130.941 156.063 C 131.060 156.137,131.158 156.387,131.158 156.620 C 131.158 157.289,115.950 157.277,115.280 156.607 C 115.041 156.368,114.845 156.028,114.845 155.851 C 114.845 155.556,114.631 155.028,113.511 152.559 C 113.287 152.067,113.105 151.597,113.105 151.514 C 113.105 151.431,112.922 150.952,112.698 150.450 C 112.474 149.948,112.040 148.900,111.733 148.120 C 111.425 147.340,111.022 146.410,110.836 146.054 C 110.650 145.697,110.497 145.282,110.496 145.132 C 110.495 144.982,110.299 144.495,110.060 144.048 C 109.821 143.602,109.625 143.083,109.625 142.896 C 109.625 142.709,109.538 142.463,109.431 142.349 C 109.324 142.235,108.580 140.479,107.776 138.445 C 106.973 136.411,106.142 134.356,105.930 133.877 C 105.718 133.399,105.337 132.493,105.083 131.865 C 104.830 131.237,104.415 130.209,104.161 129.581 C 103.907 128.953,103.516 128.037,103.291 127.546 C 103.066 127.054,102.882 126.561,102.882 126.450 C 102.882 126.338,102.686 125.864,102.447 125.394 C 102.208 124.925,102.012 124.418,102.012 124.268 C 102.012 123.504,94.821 123.139,93.843 123.854 C 93.433 124.154,93.417 124.646,93.312 140.548 L 93.203 156.933 85.931 156.990 C 80.258 157.035,78.621 156.987,78.485 156.773 C 78.285 156.458,78.241 76.709,78.441 75.965 L 78.572 75.476 90.672 75.478 C 97.328 75.479,104.140 75.578,105.810 75.699 M221.599 75.737 C 221.797 75.935,221.860 79.779,221.860 91.708 C 221.860 105.700,221.897 107.456,222.202 107.760 C 222.660 108.219,244.336 108.287,244.631 107.830 C 244.728 107.681,244.856 100.364,244.916 91.572 L 245.024 75.585 252.261 75.527 L 259.497 75.470 259.711 76.031 C 260.056 76.938,259.998 156.205,259.652 156.677 C 259.404 157.016,258.757 157.043,252.202 156.991 L 245.024 156.933 244.916 139.361 C 244.821 124.059,244.765 121.763,244.481 121.582 C 244.282 121.456,239.898 121.395,233.285 121.427 L 222.416 121.479 222.141 122.023 C 221.926 122.447,221.865 126.319,221.863 139.672 C 221.860 155.068,221.825 156.791,221.516 156.910 C 221.067 157.082,207.862 157.082,207.413 156.910 C 206.959 156.736,206.877 76.190,207.330 75.737 C 207.703 75.363,221.225 75.363,221.599 75.737 M318.209 75.897 C 318.611 76.648,318.506 87.771,318.092 88.185 C 317.789 88.488,316.276 88.526,304.728 88.526 L 291.705 88.526 291.366 89.010 C 290.954 89.599,290.848 106.926,291.253 107.682 C 291.470 108.088,291.813 108.102,301.432 108.102 C 308.885 108.102,311.452 108.168,311.648 108.363 C 312.020 108.736,312.020 120.737,311.648 121.109 C 311.452 121.304,308.915 121.371,301.588 121.374 C 295.797 121.376,291.656 121.461,291.463 121.583 C 291.050 121.844,290.842 142.586,291.245 143.338 C 291.474 143.767,291.695 143.774,305.156 143.774 C 312.678 143.774,318.988 143.833,319.177 143.906 C 319.480 144.022,319.521 144.802,319.521 150.427 L 319.521 156.816 319.032 156.934 C 318.763 156.999,309.048 157.026,297.444 156.993 L 276.346 156.933 276.290 116.476 C 276.259 94.225,276.281 75.897,276.338 75.748 C 276.539 75.219,317.925 75.366,318.209 75.897 M363.241 75.892 C 369.818 77.169,373.712 78.963,377.125 82.290 C 378.381 83.514,381.077 87.222,381.077 87.725 C 381.077 87.841,381.258 88.337,381.480 88.829 C 384.271 95.013,383.939 107.107,380.844 112.017 C 380.731 112.197,380.522 112.588,380.380 112.887 C 379.304 115.146,376.194 117.954,373.167 119.399 C 370.871 120.495,370.863 120.529,372.265 123.654 C 372.426 124.013,372.818 124.943,373.136 125.721 C 373.454 126.498,373.846 127.428,374.006 127.787 C 374.166 128.146,374.558 129.076,374.876 129.853 C 375.194 130.631,375.607 131.610,375.794 132.028 C 376.298 133.161,376.630 133.940,377.276 135.508 C 377.596 136.286,378.033 137.314,378.246 137.792 C 378.460 138.271,378.901 139.341,379.226 140.170 C 379.551 140.998,379.895 141.830,379.991 142.018 C 380.087 142.206,380.427 142.996,380.746 143.774 C 381.066 144.551,381.458 145.481,381.619 145.840 C 381.779 146.199,382.171 147.129,382.489 147.906 C 382.807 148.684,383.207 149.638,383.377 150.027 C 383.547 150.416,383.826 151.052,383.996 151.441 C 384.167 151.830,384.565 152.784,384.882 153.562 C 385.199 154.339,385.598 155.253,385.769 155.591 C 386.542 157.123,386.953 157.042,378.396 157.042 L 370.712 157.042 370.255 156.552 C 370.004 156.283,369.729 155.769,369.644 155.411 C 369.558 155.052,369.415 154.660,369.325 154.541 C 369.234 154.421,368.602 152.904,367.920 151.169 C 367.238 149.434,366.591 147.922,366.483 147.809 C 366.375 147.695,366.286 147.449,366.286 147.262 C 366.286 147.074,366.090 146.556,365.851 146.110 C 365.612 145.663,365.416 145.186,365.416 145.049 C 365.416 144.912,365.232 144.398,365.007 143.906 C 364.605 143.027,364.044 141.676,363.193 139.532 C 362.955 138.934,362.632 138.151,362.474 137.792 C 361.939 136.577,361.100 134.536,360.551 133.112 C 360.251 132.332,359.853 131.402,359.667 131.046 C 359.481 130.689,359.328 130.244,359.327 130.058 C 359.326 129.871,359.182 129.529,359.006 129.297 C 358.831 129.064,358.684 128.738,358.680 128.572 C 358.676 128.406,358.484 127.867,358.253 127.376 C 358.022 126.884,357.578 125.898,357.265 125.184 C 356.952 124.470,356.578 123.810,356.434 123.719 C 355.884 123.369,349.162 123.517,348.792 123.887 C 348.487 124.192,348.450 125.987,348.450 140.374 C 348.450 152.642,348.388 156.583,348.189 156.781 C 347.816 157.154,334.077 157.154,333.703 156.781 C 333.314 156.391,333.324 76.118,333.714 75.719 C 334.061 75.364,361.342 75.523,363.241 75.892 M94.233 87.664 C 93.356 88.017,93.312 88.588,93.312 99.643 L 93.312 110.297 93.866 110.852 L 94.421 111.407 99.250 111.313 C 107.419 111.156,110.289 109.910,112.291 105.654 C 113.890 102.253,113.881 96.413,112.272 93.070 C 110.735 89.879,108.225 88.359,103.317 87.649 C 101.668 87.410,94.837 87.422,94.233 87.664 M348.885 87.874 C 348.462 88.297,348.450 88.599,348.450 99.402 C 348.450 112.955,347.764 111.366,353.616 111.361 C 361.617 111.355,365.121 109.959,367.132 105.976 C 368.063 104.131,368.795 100.245,368.555 98.423 C 367.424 89.840,364.077 87.467,353.072 87.446 C 349.605 87.439,349.287 87.472,348.885 87.874 M106.906 88.960 C 108.111 89.433,109.779 90.557,110.449 91.349 C 114.281 95.881,113.530 105.743,109.127 108.711 C 106.732 110.324,106.421 110.382,100.054 110.384 L 94.290 110.386 94.234 99.619 C 94.203 93.698,94.228 88.721,94.290 88.559 C 94.510 87.985,105.291 88.327,106.906 88.960 M361.936 88.989 C 366.232 90.859,367.675 93.443,367.690 99.293 C 367.703 104.329,366.864 106.571,364.213 108.582 C 362.031 110.237,361.258 110.386,354.867 110.386 L 349.212 110.386 349.155 99.619 C 349.124 93.698,349.149 88.720,349.211 88.557 C 349.436 87.972,360.457 88.346,361.936 88.989 M38.731 93.257 C 38.400 93.526,38.209 94.021,38.078 94.943 C 37.976 95.661,37.747 96.737,37.568 97.336 C 37.261 98.362,37.082 99.137,36.524 101.849 C 36.395 102.477,36.100 103.627,35.869 104.405 C 35.637 105.182,35.449 106.091,35.451 106.424 C 35.453 106.756,35.310 107.374,35.134 107.796 C 34.957 108.217,34.749 109.071,34.671 109.692 C 34.592 110.313,34.396 111.145,34.235 111.541 C 34.075 111.936,33.879 112.768,33.800 113.389 C 33.722 114.011,33.535 114.822,33.385 115.192 C 33.234 115.563,33.040 116.395,32.954 117.041 C 32.867 117.688,32.660 118.546,32.494 118.950 C 32.327 119.353,32.191 119.895,32.191 120.153 C 32.191 120.412,32.044 121.158,31.863 121.812 C 31.218 124.154,31.036 125.506,31.290 126.065 L 31.530 126.591 38.995 126.591 C 47.865 126.591,47.590 126.708,46.653 123.321 C 46.472 122.667,46.216 121.495,46.085 120.718 C 45.954 119.940,45.757 119.134,45.647 118.926 C 45.537 118.718,45.311 117.837,45.145 116.968 C 44.978 116.100,44.744 114.997,44.624 114.519 C 43.941 111.788,43.649 110.487,43.500 109.506 C 43.409 108.903,43.182 107.924,42.996 107.331 C 42.810 106.738,42.554 105.740,42.427 105.111 C 42.301 104.483,42.093 103.456,41.966 102.828 C 41.840 102.200,41.600 101.245,41.434 100.707 C 41.267 100.169,41.067 99.288,40.989 98.749 C 40.910 98.211,40.661 97.148,40.434 96.388 C 40.207 95.628,40.022 94.681,40.022 94.283 C 40.022 93.134,39.446 92.677,38.731 93.257 M39.694 95.541 C 39.775 96.049,40.019 97.200,40.237 98.097 C 41.215 102.120,41.104 101.635,42.305 107.123 C 42.743 109.128,43.276 111.359,43.605 112.561 C 43.768 113.159,43.965 114.089,44.043 114.628 C 44.121 115.166,44.316 116.047,44.478 116.585 C 44.639 117.123,44.834 117.955,44.911 118.434 C 44.988 118.912,45.186 119.793,45.350 120.392 C 46.236 123.610,46.552 125.343,46.308 125.638 C 46.106 125.882,44.736 125.938,39.027 125.938 C 30.875 125.938,31.361 126.087,31.972 123.783 C 32.181 122.994,32.566 121.370,32.828 120.174 C 33.090 118.978,33.449 117.461,33.625 116.803 C 33.801 116.145,34.030 115.166,34.134 114.628 C 34.325 113.638,34.799 111.596,35.345 109.407 C 35.784 107.649,36.327 105.345,36.651 103.861 C 36.808 103.143,37.138 101.675,37.384 100.598 C 37.630 99.521,38.010 97.856,38.229 96.898 C 38.818 94.321,39.415 93.768,39.694 95.541 M16.096 175.085 C 9.778 176.276,8.395 179.264,8.545 191.408 C 8.678 202.197,9.638 204.382,14.941 205.962 C 22.063 208.082,28.059 203.855,28.059 196.713 C 28.059 194.676,28.051 194.671,24.865 194.671 C 21.807 194.671,22.072 194.457,21.901 197.070 C 21.632 201.197,16.798 202.622,15.152 199.060 C 14.467 197.577,14.422 184.123,15.097 182.423 C 16.458 178.994,21.470 180.031,21.897 183.829 C 22.087 185.510,22.129 185.536,24.700 185.536 C 28.355 185.536,28.639 185.132,27.598 181.417 C 26.260 176.638,21.565 174.053,16.096 175.085 M50.136 175.022 C 47.352 175.486,45.090 176.873,43.841 178.881 C 41.731 182.273,41.684 198.729,43.774 202.284 C 47.092 207.926,57.377 207.839,60.562 202.141 C 62.518 198.641,62.535 183.066,60.587 179.260 C 59.025 176.208,54.365 174.318,50.136 175.022 M119.739 175.023 C 115.225 175.772,112.469 178.902,112.456 183.295 C 112.444 187.181,113.926 189.022,119.775 192.387 C 124.852 195.309,126.000 196.882,124.871 199.368 C 123.498 202.393,118.827 201.382,118.021 197.885 C 117.833 197.069,117.026 196.355,116.477 196.519 C 116.238 196.591,115.265 196.793,114.316 196.968 C 111.493 197.487,111.278 198.084,112.841 201.064 C 117.467 209.889,131.435 207.311,131.368 197.644 C 131.342 193.912,128.565 189.994,124.784 188.354 C 124.522 188.240,124.160 188.053,123.980 187.939 C 123.801 187.824,122.852 187.280,121.871 186.729 C 119.025 185.132,118.176 183.802,118.822 181.956 C 119.793 179.184,122.967 179.532,124.964 182.630 C 125.884 184.058,125.825 184.032,127.357 183.672 C 131.028 182.811,131.356 182.457,130.406 180.384 C 128.629 176.501,124.210 174.281,119.739 175.023 M254.921 175.085 C 248.616 176.273,247.152 179.543,247.376 191.940 C 247.560 202.148,248.597 204.422,253.767 205.962 C 260.659 208.014,266.357 204.313,266.818 197.485 C 267.007 194.674,267.004 194.671,263.858 194.671 C 260.800 194.671,260.893 194.601,260.689 197.064 C 260.405 200.498,258.401 201.767,255.304 200.473 C 253.769 199.831,253.733 199.634,253.657 191.237 C 253.577 182.344,253.670 181.723,255.199 180.929 C 257.814 179.572,260.227 180.781,260.619 183.646 C 260.860 185.409,260.871 185.416,263.707 185.499 C 266.833 185.591,267.002 185.475,266.795 183.374 C 266.203 177.367,261.229 173.895,254.921 175.085 M342.686 175.015 C 336.275 176.007,334.764 178.988,334.764 190.647 C 334.764 201.949,335.844 204.492,341.285 206.000 C 346.960 207.572,352.010 205.299,353.697 200.411 C 354.482 198.137,354.502 183.214,353.724 180.963 C 352.205 176.573,347.836 174.218,342.686 175.015 M77.349 175.779 C 76.821 176.532,76.813 205.113,77.340 205.640 C 77.605 205.904,78.167 205.982,79.826 205.982 C 82.928 205.982,82.654 206.889,82.654 196.613 C 82.654 191.790,82.738 187.928,82.844 187.928 C 83.005 187.928,84.829 191.414,84.829 191.722 C 84.829 191.780,85.160 192.540,85.565 193.412 C 86.239 194.864,86.816 196.133,87.868 198.477 C 88.083 198.956,88.595 200.082,89.007 200.979 C 89.418 201.876,90.035 203.264,90.378 204.062 C 90.783 205.006,91.181 205.596,91.514 205.748 C 92.232 206.075,96.416 206.053,96.748 205.721 C 97.196 205.273,97.117 176.105,96.667 175.654 C 96.231 175.218,92.509 175.163,91.940 175.585 C 91.610 175.830,91.568 176.641,91.518 183.796 C 91.488 188.162,91.384 191.735,91.288 191.735 C 91.084 191.735,90.534 190.744,89.719 188.907 C 89.400 188.189,88.953 187.186,88.724 186.678 C 88.496 186.169,88.124 185.337,87.898 184.829 C 87.672 184.320,87.197 183.268,86.842 182.490 C 86.487 181.713,85.726 180.000,85.152 178.684 C 83.676 175.306,83.857 175.436,80.497 175.350 C 77.785 175.281,77.688 175.294,77.349 175.779 M145.221 175.710 C 144.721 176.263,144.706 179.779,145.200 180.485 C 145.520 180.941,145.693 180.968,148.310 180.968 C 150.176 180.968,151.167 181.053,151.343 181.229 C 151.540 181.426,151.604 184.425,151.604 193.394 C 151.604 203.926,151.644 205.337,151.946 205.640 C 152.366 206.060,156.268 206.127,157.140 205.729 L 157.694 205.477 157.694 193.643 C 157.694 185.902,157.772 181.664,157.920 181.389 C 158.124 181.007,158.398 180.968,160.856 180.968 C 164.393 180.968,164.437 180.932,164.437 178.044 C 164.437 175.078,165.289 175.313,154.526 175.313 C 146.137 175.313,145.559 175.337,145.221 175.710 M178.482 175.654 C 178.032 176.105,177.954 205.273,178.401 205.721 C 178.572 205.891,179.469 205.982,180.987 205.982 C 184.460 205.982,184.220 206.448,184.285 199.565 L 184.339 193.910 185.461 193.845 L 186.582 193.780 187.013 194.715 C 187.493 195.757,187.658 196.150,188.725 198.804 C 189.134 199.821,189.612 200.961,189.786 201.338 C 189.961 201.715,190.104 202.106,190.105 202.208 C 190.105 202.310,190.232 202.637,190.385 202.936 C 190.538 203.235,190.834 203.931,191.042 204.481 C 191.539 205.799,192.003 205.982,194.857 205.982 C 198.062 205.982,198.183 205.882,197.395 203.897 C 197.066 203.069,196.728 202.295,196.643 202.175 C 196.558 202.055,196.170 201.138,195.782 200.136 C 195.394 199.134,194.994 198.156,194.894 197.961 C 194.794 197.767,194.453 196.971,194.137 196.194 C 193.820 195.416,193.453 194.585,193.320 194.346 C 192.585 193.026,192.689 192.566,193.937 191.624 C 198.919 187.863,197.884 178.954,192.170 176.412 C 189.813 175.364,179.352 174.785,178.482 175.654 M212.479 175.673 C 212.234 175.968,212.181 178.113,212.181 187.581 L 212.181 199.130 212.712 200.544 C 215.559 208.112,228.102 208.651,231.413 201.347 C 232.429 199.108,232.824 176.707,231.865 175.748 C 231.213 175.096,227.405 175.103,226.573 175.758 L 226.007 176.203 225.945 187.459 C 225.888 197.880,225.855 198.759,225.491 199.313 C 224.164 201.338,220.563 201.448,219.083 199.509 L 218.488 198.729 218.380 187.330 C 218.275 176.363,218.255 175.918,217.849 175.621 C 217.197 175.145,212.882 175.186,212.479 175.673 M280.273 175.796 C 279.851 176.399,279.811 179.514,280.216 180.315 C 280.484 180.848,280.554 180.861,283.530 180.968 L 286.569 181.077 286.678 193.170 C 286.805 207.393,286.470 205.982,289.725 205.982 C 293.359 205.982,292.979 207.453,293.041 193.148 L 293.094 181.077 296.075 180.968 C 299.639 180.838,299.591 180.869,299.696 178.564 C 299.853 175.100,300.521 175.313,289.507 175.313 L 280.612 175.313 280.273 175.796 M314.301 175.464 C 313.429 175.776,313.431 175.729,313.431 190.785 L 313.431 205.304 313.915 205.643 C 314.525 206.071,318.848 206.133,319.260 205.721 C 319.777 205.204,319.621 175.816,319.101 175.538 C 318.673 175.309,314.897 175.251,314.301 175.464 M370.201 175.464 C 369.329 175.776,369.331 175.729,369.331 190.785 L 369.331 205.304 369.815 205.643 C 370.466 206.099,374.059 206.122,374.673 205.673 C 375.075 205.379,375.100 204.960,375.204 196.918 C 375.307 188.888,375.393 187.908,375.908 188.836 C 376.060 189.110,377.196 191.590,378.032 193.475 C 378.245 193.953,378.870 195.301,379.421 196.469 C 379.973 197.638,380.424 198.637,380.424 198.690 C 380.424 198.744,380.755 199.500,381.160 200.372 C 382.770 203.838,383.034 204.440,383.034 204.631 C 383.034 205.862,387.658 206.636,389.076 205.643 L 389.560 205.304 389.560 190.647 L 389.560 175.990 389.076 175.651 C 388.730 175.409,388.064 175.313,386.732 175.313 C 385.400 175.313,384.734 175.409,384.388 175.651 L 383.904 175.990 383.901 183.536 C 383.898 190.078,383.777 192.094,383.415 191.620 C 383.372 191.563,383.008 190.783,382.607 189.886 C 382.205 188.989,381.542 187.520,381.132 186.623 C 380.290 184.779,379.741 183.563,379.143 182.219 C 378.917 181.710,378.442 180.658,378.087 179.880 C 377.732 179.103,377.165 177.846,376.828 177.087 C 376.415 176.159,376.044 175.643,375.695 175.510 C 375.147 175.302,370.758 175.265,370.201 175.464 M20.989 175.877 C 24.733 176.651,26.601 178.724,27.196 182.763 C 27.533 185.054,27.599 184.973,25.318 185.069 C 22.537 185.185,22.492 185.161,22.316 183.447 C 21.927 179.644,17.353 178.427,14.915 181.477 L 14.247 182.313 14.247 190.613 C 14.247 200.938,14.438 201.452,18.271 201.452 C 21.019 201.452,22.102 200.365,22.352 197.352 L 22.512 195.432 24.470 195.368 C 27.730 195.262,27.777 195.328,27.092 199.130 C 26.059 204.869,19.284 207.666,13.393 204.784 C 9.548 202.902,8.329 196.613,9.357 183.952 C 9.893 177.358,14.083 174.449,20.989 175.877 M54.663 175.855 C 57.427 176.384,59.055 177.566,60.309 179.956 L 61.011 181.294 61.011 190.647 L 61.011 200.000 60.422 201.196 C 57.438 207.250,46.958 207.485,44.079 201.563 C 42.332 197.969,42.321 183.317,44.063 179.754 C 45.696 176.416,49.767 174.919,54.663 175.855 M123.891 175.852 C 126.746 176.448,129.114 178.394,129.940 180.824 C 130.387 182.138,130.298 182.490,129.522 182.490 C 129.235 182.490,128.503 182.686,127.896 182.926 C 126.304 183.553,126.127 183.503,125.413 182.232 C 123.673 179.134,120.162 178.579,118.516 181.140 C 116.910 183.639,118.126 185.450,123.219 188.147 C 124.176 188.654,125.114 189.203,125.303 189.368 C 125.491 189.533,125.742 189.668,125.860 189.668 C 126.349 189.668,129.442 192.803,130.005 193.870 C 130.906 195.577,130.907 199.655,130.007 201.367 C 126.529 207.986,115.961 207.084,112.872 199.903 C 112.115 198.145,113.091 197.331,115.999 197.294 L 117.044 197.281 117.577 198.445 C 119.275 202.154,123.469 202.911,125.348 199.847 C 126.876 197.356,125.224 194.726,120.494 192.122 C 118.473 191.009,118.319 190.920,117.254 190.234 C 114.165 188.246,113.105 186.489,113.105 183.355 C 113.105 177.643,117.574 174.534,123.891 175.852 M259.706 175.847 C 263.288 176.542,264.963 178.177,265.942 181.934 C 266.768 185.106,266.770 185.102,264.093 185.098 C 261.599 185.093,261.509 185.046,261.226 183.610 C 260.840 181.649,260.703 181.357,259.858 180.672 C 257.827 179.029,254.471 179.810,253.393 182.176 C 252.715 183.665,252.736 197.650,253.419 199.237 C 254.102 200.826,255.130 201.452,257.055 201.452 C 259.721 201.452,260.634 200.645,261.184 197.803 C 261.687 195.200,261.544 195.324,264.046 195.324 C 266.415 195.324,266.451 195.346,266.446 196.810 C 266.431 201.499,263.498 205.024,259.145 205.586 C 253.789 206.277,250.160 204.581,248.759 200.732 L 248.176 199.130 248.177 190.612 C 248.178 181.310,248.226 180.918,249.614 178.855 C 251.396 176.206,255.402 175.012,259.706 175.847 M347.148 175.843 C 349.498 176.293,352.365 178.174,352.365 179.266 C 352.365 179.405,352.501 179.674,352.666 179.863 C 353.409 180.712,353.737 183.513,353.831 189.827 C 353.919 195.715,353.862 196.675,353.230 199.822 C 352.359 204.158,348.462 206.277,342.628 205.587 C 339.254 205.188,337.371 203.766,336.127 200.677 L 335.508 199.140 335.512 190.544 L 335.516 181.947 336.133 180.533 C 337.904 176.475,341.794 174.819,347.148 175.843 M83.425 176.499 C 83.718 176.793,83.958 177.160,83.958 177.315 C 83.958 177.470,84.149 177.988,84.382 178.467 C 84.616 178.945,84.997 179.777,85.228 180.315 C 85.460 180.854,85.916 181.881,86.242 182.599 C 86.567 183.317,87.119 184.541,87.469 185.318 C 87.819 186.096,88.283 187.123,88.500 187.602 C 88.718 188.080,89.092 188.912,89.331 189.451 C 90.978 193.159,91.269 193.576,91.722 192.877 C 91.819 192.727,91.947 188.885,92.007 184.339 L 92.115 176.074 94.290 176.074 L 96.465 176.074 96.521 190.701 L 96.577 205.329 94.255 205.329 C 91.963 205.329,91.136 205.086,91.136 204.412 C 91.136 204.222,90.870 203.618,89.262 200.155 C 88.858 199.283,88.526 198.522,88.526 198.465 C 88.526 198.373,88.029 197.286,86.343 193.692 C 86.118 193.214,85.625 192.137,85.245 191.300 C 83.278 186.953,82.812 186.201,82.388 186.678 C 82.361 186.707,82.288 190.892,82.225 195.976 L 82.110 205.220 79.826 205.220 L 77.542 205.220 77.486 190.889 C 77.446 180.483,77.498 176.476,77.676 176.261 C 78.169 175.667,82.784 175.858,83.425 176.499 M163.676 178.032 L 163.676 179.989 160.801 180.098 C 156.714 180.252,157.171 178.672,157.042 193.102 L 156.933 205.220 154.600 205.282 L 152.267 205.344 152.208 193.163 C 152.136 178.642,152.595 180.236,148.464 180.136 C 145.152 180.055,145.305 180.160,145.299 177.963 C 145.294 175.784,144.480 175.952,154.713 176.017 L 163.676 176.074 163.676 178.032 M190.865 176.490 C 191.343 176.706,192.159 177.093,192.678 177.349 C 197.307 179.631,197.758 187.841,193.440 191.234 C 192.682 191.830,192.061 192.395,192.061 192.488 C 192.061 192.675,193.414 196.124,193.898 197.172 C 194.064 197.531,194.460 198.461,194.778 199.239 C 195.420 200.808,195.712 201.483,196.387 202.958 C 196.638 203.508,196.906 204.267,196.981 204.644 L 197.118 205.329 194.642 205.329 C 191.762 205.329,192.053 205.549,190.854 202.463 C 190.421 201.347,189.977 200.342,189.867 200.228 C 189.758 200.115,189.667 199.870,189.666 199.685 C 189.665 199.499,189.424 198.858,189.129 198.260 C 188.835 197.662,188.591 197.007,188.588 196.805 C 188.584 196.602,188.486 196.378,188.369 196.306 C 188.253 196.234,188.054 195.792,187.928 195.324 C 187.519 193.805,186.768 193.148,185.441 193.148 C 183.560 193.148,183.595 193.030,183.527 199.578 L 183.469 205.220 181.022 205.282 L 178.575 205.343 178.575 190.799 C 178.575 182.800,178.649 176.181,178.738 176.090 C 179.110 175.715,189.942 176.072,190.865 176.490 M217.383 176.097 C 217.690 176.215,217.727 177.325,217.729 186.375 C 217.730 197.036,217.853 198.838,218.649 199.915 C 220.483 202.395,224.789 201.943,226.210 199.122 L 226.754 198.042 226.862 187.058 L 226.971 176.074 229.255 176.074 L 231.539 176.074 231.595 187.569 L 231.652 199.064 231.052 200.620 C 229.536 204.553,225.807 206.254,220.162 205.586 C 216.232 205.122,214.080 203.315,213.121 199.674 C 212.737 198.218,212.505 176.474,212.869 176.110 C 213.051 175.929,216.915 175.918,217.383 176.097 M298.749 178.032 L 298.749 179.989 295.875 180.098 C 291.783 180.253,292.235 178.661,292.164 193.156 L 292.105 205.329 289.717 205.329 L 287.330 205.329 287.330 193.376 C 287.330 178.691,287.762 180.106,283.277 180.101 C 280.263 180.097,280.378 180.183,280.373 177.963 C 280.367 175.784,279.554 175.952,289.786 176.017 L 298.749 176.074 298.749 178.032 M319.034 190.701 L 319.090 205.329 316.719 205.329 C 314.757 205.329,314.325 205.270,314.216 204.985 C 313.972 204.351,314.066 176.840,314.313 176.378 C 314.521 175.989,314.741 175.956,316.760 176.012 L 318.978 176.074 319.034 190.701 M375.872 176.400 C 376.086 176.807,377.395 179.641,378.008 181.022 C 379.033 183.333,379.314 183.961,379.876 185.209 C 380.916 187.520,381.285 188.343,381.729 189.342 C 381.968 189.880,382.360 190.743,382.599 191.260 C 382.838 191.776,383.034 192.312,383.034 192.452 C 383.034 192.752,383.997 193.034,384.327 192.830 C 384.482 192.734,384.557 190.043,384.557 184.587 C 384.557 178.577,384.624 176.420,384.818 176.226 C 385.112 175.932,388.198 175.867,388.637 176.145 C 388.853 176.283,388.898 179.353,388.854 190.770 L 388.798 205.220 386.448 205.220 L 384.099 205.220 383.686 204.459 C 383.459 204.040,383.013 203.110,382.695 202.393 C 382.376 201.675,381.942 200.696,381.729 200.218 C 381.517 199.739,381.087 198.785,380.775 198.097 C 380.462 197.409,379.952 196.283,379.641 195.595 C 379.330 194.908,378.831 193.806,378.531 193.148 C 378.232 192.490,377.857 191.659,377.696 191.300 C 374.554 184.257,374.461 184.395,374.381 196.212 L 374.320 205.345 372.206 205.282 L 370.092 205.220 370.036 190.865 C 369.983 177.431,370.004 176.491,370.358 176.231 C 370.929 175.811,375.639 175.956,375.872 176.400 M50.066 180.246 C 49.669 180.442,49.082 180.946,48.761 181.366 L 48.178 182.130 48.178 190.640 C 48.178 198.339,48.214 199.204,48.555 199.723 C 50.153 202.164,54.037 202.146,55.699 199.691 L 56.226 198.912 56.226 190.720 L 56.226 182.528 55.568 181.585 C 54.427 179.949,51.911 179.337,50.066 180.246 M184.067 180.201 C 183.351 180.723,183.302 188.046,184.010 188.687 C 184.576 189.199,188.694 189.059,189.548 188.500 C 192.074 186.844,192.034 182.215,189.479 180.540 C 188.432 179.854,184.853 179.630,184.067 180.201 M342.905 180.030 C 340.611 180.666,340.402 181.549,340.402 190.620 C 340.402 198.283,340.412 198.448,340.892 199.411 C 342.250 202.133,346.729 202.262,348.172 199.620 C 348.790 198.489,348.760 182.714,348.138 181.686 C 347.241 180.204,344.922 179.470,342.905 180.030 M54.129 180.952 C 55.584 181.694,55.685 182.332,55.684 190.792 C 55.683 197.610,55.653 198.185,55.251 199.122 C 54.300 201.339,50.420 201.577,49.117 199.498 C 48.605 198.682,48.207 185.962,48.607 183.234 C 48.960 180.834,51.687 179.707,54.129 180.952 M346.494 180.860 C 347.995 181.636,348.015 181.766,348.015 190.695 C 348.015 198.716,348.014 198.742,347.518 199.478 C 346.219 201.407,342.465 201.369,341.540 199.417 C 340.681 197.606,340.533 184.239,341.351 182.340 C 342.132 180.530,344.525 179.841,346.494 180.860 M188.854 180.945 C 191.371 182.024,191.630 186.546,189.256 187.952 C 188.285 188.527,185.094 188.809,184.561 188.367 C 184.221 188.084,184.051 181.689,184.363 180.877 C 184.563 180.354,187.583 180.400,188.854 180.945 " stroke="none" fill="#db522d" fill-rule="evenodd"></path></g></svg>